<svg width="47" height="18" viewBox="0 0 47 18" fill="none" xmlns="http://www.w3.org/2000/svg">
<rect width="47" height="18" rx="9" fill="url(#paint0_linear_381_70)"/>
<path d="M13.5049 7.74707C13.583 7.59733 13.6758 7.45898 13.7832 7.33203C13.8939 7.20182 14.016 7.08789 14.1494 6.99023C14.3122 6.87305 14.4896 6.7819 14.6816 6.7168C14.877 6.65169 15.0853 6.61914 15.3066 6.61914C15.5964 6.61914 15.8535 6.66471 16.0781 6.75586C16.3027 6.84375 16.4899 6.97233 16.6396 7.1416C16.7926 7.31413 16.9082 7.52572 16.9863 7.77637C17.0645 8.02702 17.1035 8.31022 17.1035 8.62598V12H16.5225V8.62109C16.5192 8.39323 16.4915 8.18815 16.4395 8.00586C16.3874 7.82031 16.3076 7.66406 16.2002 7.53711C16.0863 7.40365 15.943 7.30273 15.7705 7.23438C15.6012 7.16276 15.401 7.12858 15.1699 7.13184C14.9681 7.13184 14.776 7.16602 14.5938 7.23438C14.4147 7.30273 14.2503 7.39714 14.1006 7.51758C13.9639 7.625 13.8451 7.75195 13.7441 7.89844C13.6432 8.04492 13.5635 8.20117 13.5049 8.36719V12H12.9238V4.5H13.5049V7.74707ZM19.0615 6.7168H21.5127V11.4775H23.3096V12H19.0615V11.4775H20.9316V7.23926H19.0615V6.7168ZM20.7607 5.27148C20.7607 5.20964 20.7689 5.15104 20.7852 5.0957C20.8014 5.04036 20.8291 4.99154 20.8682 4.94922C20.904 4.91016 20.9495 4.88086 21.0049 4.86133C21.0602 4.83854 21.1253 4.82715 21.2002 4.82715C21.2751 4.82715 21.3402 4.83854 21.3955 4.86133C21.4508 4.88086 21.4948 4.91016 21.5273 4.94922C21.5664 4.98828 21.5957 5.03548 21.6152 5.09082C21.6348 5.14616 21.6445 5.20638 21.6445 5.27148C21.6445 5.38867 21.6087 5.48958 21.5371 5.57422C21.4655 5.65885 21.3532 5.70117 21.2002 5.70117C21.0439 5.70117 20.9316 5.65885 20.8633 5.57422C20.7949 5.48958 20.7607 5.38867 20.7607 5.27148ZM24.9307 12V6.7168H25.4678L25.502 7.74219C25.5833 7.58919 25.6794 7.44759 25.79 7.31738C25.9007 7.18717 26.0244 7.07487 26.1611 6.98047C26.3206 6.86979 26.4964 6.7819 26.6885 6.7168C26.8838 6.65169 27.0905 6.61914 27.3086 6.61914C27.5983 6.61914 27.8538 6.66309 28.0752 6.75098C28.2998 6.83887 28.487 6.96745 28.6367 7.13672C28.7897 7.30924 28.9053 7.51921 28.9834 7.7666C29.0615 8.014 29.1006 8.29557 29.1006 8.61133V12H28.5195V8.62109C28.5163 8.38021 28.487 8.16699 28.4316 7.98145C28.3796 7.7959 28.2982 7.63965 28.1875 7.5127C28.0736 7.38574 27.932 7.28971 27.7627 7.22461C27.5967 7.15951 27.3981 7.12858 27.167 7.13184C26.9652 7.13184 26.7747 7.16764 26.5957 7.23926C26.4167 7.30762 26.2539 7.40039 26.1074 7.51758C25.9707 7.62826 25.8519 7.76009 25.751 7.91309C25.6501 8.06283 25.5719 8.22233 25.5166 8.3916V12H24.9307ZM32.8848 5.36426V6.7168H34.8428V7.2002H32.8848V10.5107C32.888 10.7158 32.9189 10.8867 32.9775 11.0234C33.0361 11.1602 33.1175 11.2692 33.2217 11.3506C33.3258 11.4352 33.4479 11.4954 33.5879 11.5312C33.7279 11.5671 33.8776 11.585 34.0371 11.585C34.1315 11.585 34.2259 11.5817 34.3203 11.5752C34.4147 11.5654 34.5075 11.5557 34.5986 11.5459C34.667 11.5361 34.7337 11.5264 34.7988 11.5166C34.8672 11.5036 34.9258 11.4922 34.9746 11.4824L35.0625 11.9268C35.0039 11.9561 34.9355 11.9805 34.8574 12C34.7826 12.0195 34.7028 12.0358 34.6182 12.0488C34.5107 12.0684 34.3984 12.0814 34.2812 12.0879C34.1673 12.0944 34.0534 12.0977 33.9395 12.0977C33.7051 12.0977 33.487 12.0684 33.2852 12.0098C33.0866 11.9544 32.9141 11.8633 32.7676 11.7363C32.6211 11.6126 32.5055 11.4499 32.4209 11.248C32.3395 11.0462 32.2972 10.8005 32.2939 10.5107V7.2002H30.8242V6.7168H32.2939V5.36426H32.8848Z" fill="#3C0C3E"/>
<defs>
<linearGradient id="paint0_linear_381_70" x1="0" y1="9" x2="47" y2="9" gradientUnits="userSpaceOnUse">
<stop stop-color="#FFBDBD"/>
<stop offset="0.52" stop-color="#FF0000" stop-opacity="0.2"/>
<stop offset="1" stop-color="#BD00FF" stop-opacity="0.2"/>
</linearGradient>
</defs>
</svg>
